<svg width="254" height="18" viewBox="0 0 254 18" fill="none" xmlns="http://www.w3.org/2000/svg">
<path d="M7.82051 13.5159C7.48137 13.7402 7.07932 13.9179 6.61436 14.0492C6.15487 14.1805 5.66803 14.2462 5.15385 14.2462C4.45914 14.2462 3.87111 14.1231 3.38974 13.8769C2.91385 13.6308 2.55556 13.2834 2.31487 12.8349C2.07419 12.3809 1.95385 11.8448 1.95385 11.2267V6.84513H0.0666666V5.31077H1.95385V3.39897L4.12 3.13641V5.31077H6.99179L6.77026 6.84513H4.12V11.2185C4.12 11.6725 4.2294 12.0034 4.4482 12.2113C4.66701 12.4137 5.01983 12.5149 5.50667 12.5149C6.06462 12.5149 6.58701 12.3836 7.07385 12.121L7.82051 13.5159ZM16.532 5.07282C16.7945 5.07282 17.0325 5.0947 17.2458 5.13846C17.4646 5.17675 17.6807 5.23419 17.894 5.31077L17.5084 8.69949H16.0643V7.00103C15.5118 7.04479 15.0277 7.29368 14.612 7.74769C14.2017 8.20171 13.8762 8.81709 13.6355 9.59385V12.4985H15.3668V14H10.2468V12.4985H11.4694V6.8041H10.2468V5.31077H13.1186L13.5207 7.30462C13.8434 6.55521 14.2455 5.99727 14.7268 5.63077C15.2137 5.2588 15.8154 5.07282 16.532 5.07282ZM26.9419 11.7108C26.9419 12.0335 26.9884 12.2742 27.0813 12.4328C27.1798 12.586 27.3412 12.7009 27.5654 12.7774L27.0978 14.2297C26.6164 14.1805 26.2143 14.0629 25.8916 13.8769C25.5743 13.6855 25.3309 13.412 25.1613 13.0564C24.8441 13.4448 24.4366 13.7402 23.9388 13.9426C23.441 14.145 22.9104 14.2462 22.347 14.2462C21.7672 14.2462 21.2584 14.134 20.8208 13.9097C20.3832 13.68 20.0468 13.36 19.8116 12.9497C19.5764 12.5395 19.4588 12.0663 19.4588 11.5303C19.4588 10.9176 19.6201 10.3952 19.9429 9.96308C20.2656 9.53094 20.7388 9.20274 21.3624 8.97846C21.986 8.75419 22.7408 8.64205 23.627 8.64205H24.8413V8.17436C24.8413 7.67111 24.6854 7.30188 24.3737 7.06667C24.0619 6.82598 23.6024 6.70564 22.9952 6.70564C22.6998 6.70564 22.3415 6.74667 21.9203 6.82872C21.4991 6.9053 21.0779 7.0147 20.6567 7.15692L20.1398 5.67179C20.6704 5.47487 21.2147 5.32444 21.7726 5.22051C22.336 5.11658 22.8584 5.06462 23.3398 5.06462C24.5378 5.06462 25.4376 5.32171 26.0393 5.8359C26.641 6.34462 26.9419 7.07761 26.9419 8.03487V11.7108ZM23.0526 12.679C23.3918 12.679 23.7254 12.586 24.0537 12.4C24.3873 12.2085 24.6499 11.9487 24.8413 11.6205V9.93026H23.988C23.2003 9.93026 22.6232 10.0561 22.2567 10.3077C21.8902 10.5538 21.707 10.9203 21.707 11.4072C21.707 11.8174 21.8219 12.132 22.0516 12.3508C22.2813 12.5696 22.615 12.679 23.0526 12.679ZM35.5138 5.31077H37.721L34.7343 14H32.1907L29.1877 5.31077H31.5179L33.4954 12.2687L35.5138 5.31077ZM43.2899 0.929232C43.5524 0.929232 43.7849 0.986667 43.9873 1.10154C44.1897 1.21094 44.3483 1.3641 44.4632 1.56103C44.5781 1.75795 44.6355 1.97675 44.6355 2.21744C44.6355 2.45812 44.5781 2.67692 44.4632 2.87385C44.3483 3.07077 44.1897 3.22667 43.9873 3.34154C43.7849 3.45641 43.5524 3.51385 43.2899 3.51385C43.0273 3.51385 42.7921 3.45641 42.5842 3.34154C42.3818 3.22667 42.2232 3.07077 42.1083 2.87385C41.9935 2.67692 41.936 2.45812 41.936 2.21744C41.936 1.97675 41.9935 1.75795 42.1083 1.56103C42.2232 1.3641 42.3818 1.21094 42.5842 1.10154C42.7921 0.986667 43.0273 0.929232 43.2899 0.929232ZM40.0653 5.31077H44.6929V12.4656H46.9822V14H39.9832V12.4656H42.5268V6.84513H40.0653V5.31077ZM52.8464 12.6462C53.3661 12.6462 53.7764 12.5586 54.0772 12.3836C54.3835 12.2031 54.5367 11.9515 54.5367 11.6287C54.5367 11.4044 54.4847 11.2212 54.3808 11.079C54.2769 10.9368 54.0772 10.8027 53.7818 10.6769C53.4919 10.5456 53.0516 10.4007 52.4608 10.2421C51.8591 10.0889 51.3558 9.90838 50.9511 9.70051C50.5463 9.48718 50.2317 9.21368 50.0075 8.88C49.7832 8.54085 49.6711 8.12513 49.6711 7.63282C49.6711 7.12957 49.8133 6.68376 50.0977 6.29538C50.3876 5.90701 50.8034 5.60615 51.3449 5.39282C51.8919 5.17402 52.5374 5.06462 53.2813 5.06462C54.6051 5.06462 55.7346 5.40376 56.67 6.08205L55.7839 7.40308C54.9907 6.89983 54.1729 6.64821 53.3305 6.64821C52.3569 6.64821 51.87 6.92718 51.87 7.48513C51.87 7.67658 51.9275 7.83521 52.0423 7.96103C52.1627 8.08684 52.3678 8.20718 52.6577 8.32205C52.9531 8.43692 53.4044 8.57915 54.0116 8.74872C54.6352 8.92376 55.1439 9.11521 55.5377 9.32308C55.937 9.53094 56.2461 9.80718 56.4649 10.1518C56.6892 10.4964 56.8013 10.9368 56.8013 11.4728C56.8013 12.0745 56.6208 12.586 56.2598 13.0072C55.9042 13.4229 55.4283 13.7347 54.8321 13.9426C54.2358 14.145 53.5767 14.2462 52.8546 14.2462C52.067 14.2462 51.364 14.134 50.7459 13.9097C50.1278 13.6855 49.5945 13.3764 49.1459 12.9826L50.27 11.719C50.6256 12.0034 51.0222 12.2304 51.4598 12.4C51.8974 12.5641 52.3596 12.6462 52.8464 12.6462ZM62.7558 2.40615C64.0358 2.40615 65.0478 2.69607 65.7917 3.2759C66.5357 3.85573 67.0581 4.64615 67.3589 5.64718C67.6598 6.64274 67.8102 7.83248 67.8102 9.21641C67.8102 10.6824 67.7391 11.8694 67.5969 12.7774C67.4546 13.68 67.2003 14.3638 66.8338 14.8287C66.4673 15.2937 65.9504 15.5262 65.283 15.5262C64.8728 15.5262 64.5254 15.414 64.241 15.1897C63.962 14.9709 63.7459 14.6865 63.5928 14.3364C63.4451 13.9918 63.3575 13.6253 63.3302 13.2369H63.2646C63.0731 13.6909 62.7859 14.0629 62.403 14.3528C62.0256 14.6427 61.5524 14.7877 60.9835 14.7877C60.0864 14.7877 59.43 14.4513 59.0143 13.7785C58.604 13.1002 58.3989 12.1867 58.3989 11.0379C58.3989 9.64308 58.6834 8.57094 59.2522 7.82154C59.8266 7.06667 60.6717 6.68923 61.7876 6.68923C62.6902 6.68923 63.5572 6.91624 64.3887 7.37026V12.2687C64.3887 12.9415 64.457 13.412 64.5938 13.68C64.736 13.948 64.9466 14.0821 65.2256 14.0821C65.4717 14.0821 65.6522 13.9125 65.7671 13.5733C65.882 13.2342 65.9531 12.7528 65.9804 12.1292C66.0078 11.5056 66.0215 10.5648 66.0215 9.30667C66.0215 8.10325 65.9285 7.11043 65.7425 6.32821C65.562 5.54051 65.2283 4.93333 64.7415 4.50667C64.2546 4.07453 63.5654 3.85846 62.6738 3.85846C62.0611 3.85846 61.4567 3.97333 60.8604 4.20308C60.2697 4.43282 59.6652 4.8212 59.0471 5.36821L58.1035 4.26051C58.8365 3.62051 59.5832 3.15282 60.3435 2.85744C61.1039 2.55658 61.908 2.40615 62.7558 2.40615ZM61.7794 8.10051C61.4184 8.10051 61.1367 8.19897 60.9343 8.3959C60.7319 8.58735 60.5869 8.89368 60.4994 9.31487C60.4174 9.73607 60.3763 10.3104 60.3763 11.0379C60.3763 11.8421 60.4475 12.4328 60.5897 12.8103C60.7319 13.1822 60.9835 13.3682 61.3446 13.3682C61.6181 13.3682 61.8369 13.3026 62.001 13.1713C62.1651 13.04 62.2827 12.8896 62.3538 12.72C62.4304 12.545 62.496 12.3426 62.5507 12.1128V8.28103C62.4249 8.21538 62.3018 8.16889 62.1815 8.14154C62.0666 8.11419 61.9326 8.10051 61.7794 8.10051ZM76.7268 13.5159C76.3876 13.7402 75.9856 13.9179 75.5206 14.0492C75.0611 14.1805 74.5743 14.2462 74.0601 14.2462C73.3654 14.2462 72.7774 14.1231 72.296 13.8769C71.8201 13.6308 71.4618 13.2834 71.2211 12.8349C70.9804 12.3809 70.8601 11.8448 70.8601 11.2267V6.84513H68.9729V5.31077H70.8601V3.39897L73.0262 3.13641V5.31077H75.898L75.6765 6.84513H73.0262V11.2185C73.0262 11.6725 73.1357 12.0034 73.3545 12.2113C73.5733 12.4137 73.9261 12.5149 74.4129 12.5149C74.9709 12.5149 75.4933 12.3836 75.9801 12.121L76.7268 13.5159ZM85.4382 5.07282C85.7008 5.07282 85.9387 5.0947 86.1521 5.13846C86.3709 5.17675 86.5869 5.23419 86.8003 5.31077L86.4146 8.69949H84.9705V7.00103C84.418 7.04479 83.9339 7.29368 83.5182 7.74769C83.1079 8.20171 82.7825 8.81709 82.5418 9.59385V12.4985H84.2731V14H79.1531V12.4985H80.3756V6.8041H79.1531V5.31077H82.0249L82.4269 7.30462C82.7497 6.55521 83.1517 5.99727 83.6331 5.63077C84.1199 5.2588 84.7216 5.07282 85.4382 5.07282ZM95.8481 11.7108C95.8481 12.0335 95.8946 12.2742 95.9876 12.4328C96.0861 12.586 96.2474 12.7009 96.4717 12.7774L96.004 14.2297C95.5226 14.1805 95.1206 14.0629 94.7979 13.8769C94.4806 13.6855 94.2372 13.412 94.0676 13.0564C93.7503 13.4448 93.3428 13.7402 92.845 13.9426C92.3473 14.145 91.8167 14.2462 91.2532 14.2462C90.6734 14.2462 90.1647 14.134 89.7271 13.9097C89.2895 13.68 88.9531 13.36 88.7179 12.9497C88.4826 12.5395 88.365 12.0663 88.365 11.5303C88.365 10.9176 88.5264 10.3952 88.8491 9.96308C89.1719 9.53094 89.645 9.20274 90.2686 8.97846C90.8922 8.75419 91.6471 8.64205 92.5332 8.64205H93.7476V8.17436C93.7476 7.67111 93.5917 7.30188 93.2799 7.06667C92.9681 6.82598 92.5086 6.70564 91.9014 6.70564C91.6061 6.70564 91.2478 6.74667 90.8266 6.82872C90.4054 6.9053 89.9842 7.0147 89.563 7.15692L89.0461 5.67179C89.5767 5.47487 90.1209 5.32444 90.6789 5.22051C91.2423 5.11658 91.7647 5.06462 92.2461 5.06462C93.444 5.06462 94.3438 5.32171 94.9455 5.8359C95.5473 6.34462 95.8481 7.07761 95.8481 8.03487V11.7108ZM91.9589 12.679C92.298 12.679 92.6317 12.586 92.9599 12.4C93.2936 12.2085 93.5561 11.9487 93.7476 11.6205V9.93026H92.8943C92.1066 9.93026 91.5295 10.0561 91.163 10.3077C90.7965 10.5538 90.6132 10.9203 90.6132 11.4072C90.6132 11.8174 90.7281 12.132 90.9579 12.3508C91.1876 12.5696 91.5213 12.679 91.9589 12.679ZM104.42 5.31077H106.627L103.641 14H101.097L98.0939 5.31077H100.424L102.402 12.2687L104.42 5.31077ZM112.196 0.929232C112.459 0.929232 112.691 0.986667 112.894 1.10154C113.096 1.21094 113.255 1.3641 113.369 1.56103C113.484 1.75795 113.542 1.97675 113.542 2.21744C113.542 2.45812 113.484 2.67692 113.369 2.87385C113.255 3.07077 113.096 3.22667 112.894 3.34154C112.691 3.45641 112.459 3.51385 112.196 3.51385C111.934 3.51385 111.698 3.45641 111.49 3.34154C111.288 3.22667 111.129 3.07077 111.015 2.87385C110.9 2.67692 110.842 2.45812 110.842 2.21744C110.842 1.97675 110.9 1.75795 111.015 1.56103C111.129 1.3641 111.288 1.21094 111.49 1.10154C111.698 0.986667 111.934 0.929232 112.196 0.929232ZM108.972 5.31077H113.599V12.4656H115.888V14H108.889V12.4656H111.433V6.84513H108.972V5.31077ZM121.753 12.6462C122.272 12.6462 122.683 12.5586 122.983 12.3836C123.29 12.2031 123.443 11.9515 123.443 11.6287C123.443 11.4044 123.391 11.2212 123.287 11.079C123.183 10.9368 122.983 10.8027 122.688 10.6769C122.398 10.5456 121.958 10.4007 121.367 10.2421C120.765 10.0889 120.262 9.90838 119.857 9.70051C119.453 9.48718 119.138 9.21368 118.914 8.88C118.689 8.54085 118.577 8.12513 118.577 7.63282C118.577 7.12957 118.72 6.68376 119.004 6.29538C119.294 5.90701 119.71 5.60615 120.251 5.39282C120.798 5.17402 121.444 5.06462 122.188 5.06462C123.511 5.06462 124.641 5.40376 125.576 6.08205L124.69 7.40308C123.897 6.89983 123.079 6.64821 122.237 6.64821C121.263 6.64821 120.776 6.92718 120.776 7.48513C120.776 7.67658 120.834 7.83521 120.949 7.96103C121.069 8.08684 121.274 8.20718 121.564 8.32205C121.859 8.43692 122.311 8.57915 122.918 8.74872C123.541 8.92376 124.05 9.11521 124.444 9.32308C124.843 9.53094 125.152 9.80718 125.371 10.1518C125.595 10.4964 125.708 10.9368 125.708 11.4728C125.708 12.0745 125.527 12.586 125.166 13.0072C124.81 13.4229 124.335 13.7347 123.738 13.9426C123.142 14.145 122.483 14.2462 121.761 14.2462C120.973 14.2462 120.27 14.134 119.652 13.9097C119.034 13.6855 118.501 13.3764 118.052 12.9826L119.176 11.719C119.532 12.0034 119.928 12.2304 120.366 12.4C120.804 12.5641 121.266 12.6462 121.753 12.6462ZM134.468 5.06462C135.048 5.06462 135.488 5.25607 135.789 5.63898C136.09 6.02188 136.241 6.66188 136.241 7.55897V14H134.353V7.82974C134.353 7.55077 134.34 7.33744 134.312 7.18974C134.29 7.03658 134.241 6.92444 134.165 6.85333C134.094 6.78222 133.984 6.74667 133.836 6.74667C133.437 6.74667 133.065 6.99009 132.721 7.47692V14H131.088V7.82974C131.088 7.55077 131.074 7.33744 131.047 7.18974C131.025 7.03658 130.976 6.92444 130.899 6.85333C130.828 6.78222 130.718 6.74667 130.571 6.74667C130.374 6.74667 130.185 6.8041 130.005 6.91897C129.824 7.02838 129.641 7.21436 129.455 7.47692V14H127.543V5.31077H129.16L129.299 6.21333C129.578 5.83043 129.857 5.54325 130.136 5.3518C130.42 5.16034 130.754 5.06462 131.137 5.06462C131.487 5.06462 131.785 5.15214 132.031 5.32718C132.277 5.49675 132.453 5.76479 132.556 6.13128C132.83 5.79214 133.12 5.52957 133.426 5.34359C133.738 5.15761 134.085 5.06462 134.468 5.06462ZM141.727 0.929232C141.99 0.929232 142.222 0.986667 142.425 1.10154C142.627 1.21094 142.786 1.3641 142.901 1.56103C143.016 1.75795 143.073 1.97675 143.073 2.21744C143.073 2.45812 143.016 2.67692 142.901 2.87385C142.786 3.07077 142.627 3.22667 142.425 3.34154C142.222 3.45641 141.99 3.51385 141.727 3.51385C141.465 3.51385 141.23 3.45641 141.022 3.34154C140.819 3.22667 140.661 3.07077 140.546 2.87385C140.431 2.67692 140.374 2.45812 140.374 2.21744C140.374 1.97675 140.431 1.75795 140.546 1.56103C140.661 1.3641 140.819 1.21094 141.022 1.10154C141.23 0.986667 141.465 0.929232 141.727 0.929232ZM138.503 5.31077H143.13V12.4656H145.42V14H138.421V12.4656H140.964V6.84513H138.503V5.31077ZM152.113 11.4728C152.113 12.1675 152.523 12.5149 153.343 12.5149C153.759 12.5149 154.194 12.4246 154.648 12.2441L155.181 13.721C154.503 14.0711 153.718 14.2462 152.827 14.2462C151.891 14.2462 151.177 13.9809 150.685 13.4503C150.193 12.9197 149.947 12.1839 149.947 11.2431V3.37436H147.345V1.84H152.113V11.4728ZM161.956 11.4728C161.956 12.1675 162.367 12.5149 163.187 12.5149C163.603 12.5149 164.038 12.4246 164.492 12.2441L165.025 13.721C164.347 14.0711 163.562 14.2462 162.67 14.2462C161.735 14.2462 161.021 13.9809 160.529 13.4503C160.036 12.9197 159.79 12.1839 159.79 11.2431V3.37436H157.189V1.84H161.956V11.4728ZM169.511 10.3159C169.571 11.0981 169.801 11.6779 170.2 12.0554C170.605 12.4328 171.122 12.6215 171.751 12.6215C172.15 12.6215 172.533 12.5586 172.9 12.4328C173.266 12.307 173.635 12.121 174.007 11.8749L174.91 13.1138C174.489 13.4694 173.996 13.7484 173.433 13.9508C172.87 14.1477 172.262 14.2462 171.611 14.2462C170.687 14.2462 169.899 14.0547 169.248 13.6718C168.603 13.2889 168.113 12.7528 167.78 12.0636C167.451 11.3744 167.287 10.5757 167.287 9.66769C167.287 8.79795 167.449 8.01573 167.771 7.32103C168.1 6.62086 168.57 6.07111 169.183 5.67179C169.801 5.26701 170.528 5.06462 171.365 5.06462C172.153 5.06462 172.839 5.23966 173.425 5.58974C174.01 5.93983 174.461 6.44581 174.779 7.10769C175.096 7.7641 175.255 8.54633 175.255 9.45436C175.255 9.76615 175.241 10.0533 175.213 10.3159H169.511ZM171.373 6.59077C170.832 6.59077 170.394 6.78496 170.061 7.17333C169.732 7.55624 169.541 8.14154 169.486 8.92923H173.146C173.135 8.17983 172.979 7.60274 172.678 7.19795C172.383 6.79316 171.948 6.59077 171.373 6.59077ZM183.876 5.07282C184.138 5.07282 184.376 5.0947 184.59 5.13846C184.808 5.17675 185.024 5.23419 185.238 5.31077L184.852 8.69949H183.408V7.00103C182.856 7.04479 182.371 7.29368 181.956 7.74769C181.545 8.20171 181.22 8.81709 180.979 9.59385V12.4985H182.711V14H177.591V12.4985H178.813V6.8041H177.591V5.31077H180.462L180.864 7.30462C181.187 6.55521 181.589 5.99727 182.071 5.63077C182.557 5.2588 183.159 5.07282 183.876 5.07282ZM189.256 12.5477C189.256 12.2468 189.33 11.9679 189.477 11.7108C189.631 11.4482 189.836 11.2403 190.093 11.0872C190.355 10.934 190.64 10.8574 190.946 10.8574C191.258 10.8574 191.542 10.934 191.799 11.0872C192.062 11.2403 192.267 11.4482 192.415 11.7108C192.568 11.9679 192.645 12.2468 192.645 12.5477C192.645 12.854 192.568 13.1385 192.415 13.401C192.267 13.6581 192.062 13.8632 191.799 14.0164C191.542 14.1696 191.258 14.2462 190.946 14.2462C190.64 14.2462 190.355 14.1696 190.093 14.0164C189.836 13.8632 189.631 13.6581 189.477 13.401C189.33 13.1385 189.256 12.854 189.256 12.5477ZM202.234 1.61026L204.4 1.84V14H202.48L202.349 12.9744C202.064 13.3737 201.717 13.6855 201.307 13.9097C200.902 14.134 200.443 14.2462 199.928 14.2462C198.862 14.2462 198.055 13.8359 197.508 13.0154C196.966 12.1949 196.696 11.0708 196.696 9.64308C196.696 8.75692 196.832 7.96923 197.106 7.28C197.385 6.5853 197.784 6.04376 198.304 5.65539C198.823 5.26154 199.433 5.06462 200.133 5.06462C200.976 5.06462 201.676 5.35726 202.234 5.94256V1.61026ZM200.716 6.68103C200.153 6.68103 199.718 6.92444 199.411 7.41128C199.105 7.89812 198.952 8.64479 198.952 9.65128C198.952 10.7015 199.089 11.4591 199.362 11.9241C199.641 12.3891 200.04 12.6215 200.56 12.6215C201.2 12.6215 201.758 12.2441 202.234 11.4892V7.53436C201.813 6.96547 201.307 6.68103 200.716 6.68103ZM208.886 10.3159C208.946 11.0981 209.176 11.6779 209.575 12.0554C209.98 12.4328 210.497 12.6215 211.126 12.6215C211.525 12.6215 211.908 12.5586 212.275 12.4328C212.641 12.307 213.01 12.121 213.382 11.8749L214.285 13.1138C213.864 13.4694 213.371 13.7484 212.808 13.9508C212.245 14.1477 211.637 14.2462 210.986 14.2462C210.062 14.2462 209.274 14.0547 208.623 13.6718C207.978 13.2889 207.488 12.7528 207.155 12.0636C206.826 11.3744 206.662 10.5757 206.662 9.66769C206.662 8.79795 206.824 8.01573 207.146 7.32103C207.475 6.62086 207.945 6.07111 208.558 5.67179C209.176 5.26701 209.903 5.06462 210.74 5.06462C211.528 5.06462 212.214 5.23966 212.8 5.58974C213.385 5.93983 213.836 6.44581 214.154 7.10769C214.471 7.7641 214.63 8.54633 214.63 9.45436C214.63 9.76615 214.616 10.0533 214.588 10.3159H208.886ZM210.748 6.59077C210.207 6.59077 209.769 6.78496 209.436 7.17333C209.107 7.55624 208.916 8.14154 208.861 8.92923H212.521C212.51 8.17983 212.354 7.60274 212.053 7.19795C211.758 6.79316 211.323 6.59077 210.748 6.59077ZM220.19 12.6462C220.71 12.6462 221.12 12.5586 221.421 12.3836C221.727 12.2031 221.88 11.9515 221.88 11.6287C221.88 11.4044 221.828 11.2212 221.725 11.079C221.621 10.9368 221.421 10.8027 221.126 10.6769C220.836 10.5456 220.395 10.4007 219.805 10.2421C219.203 10.0889 218.7 9.90838 218.295 9.70051C217.89 9.48718 217.575 9.21368 217.351 8.88C217.127 8.54085 217.015 8.12513 217.015 7.63282C217.015 7.12957 217.157 6.68376 217.441 6.29538C217.731 5.90701 218.147 5.60615 218.689 5.39282C219.236 5.17402 219.881 5.06462 220.625 5.06462C221.949 5.06462 223.078 5.40376 224.014 6.08205L223.128 7.40308C222.334 6.89983 221.517 6.64821 220.674 6.64821C219.701 6.64821 219.214 6.92718 219.214 7.48513C219.214 7.67658 219.271 7.83521 219.386 7.96103C219.506 8.08684 219.712 8.20718 220.001 8.32205C220.297 8.43692 220.748 8.57915 221.355 8.74872C221.979 8.92376 222.488 9.11521 222.881 9.32308C223.281 9.53094 223.59 9.80718 223.809 10.1518C224.033 10.4964 224.145 10.9368 224.145 11.4728C224.145 12.0745 223.965 12.586 223.604 13.0072C223.248 13.4229 222.772 13.7347 222.176 13.9426C221.58 14.145 220.92 14.2462 220.198 14.2462C219.411 14.2462 218.708 14.134 218.09 13.9097C217.472 13.6855 216.938 13.3764 216.49 12.9826L217.614 11.719C217.969 12.0034 218.366 12.2304 218.804 12.4C219.241 12.5641 219.703 12.6462 220.19 12.6462ZM230.321 0.929232C230.584 0.929232 230.816 0.986667 231.019 1.10154C231.221 1.21094 231.38 1.3641 231.494 1.56103C231.609 1.75795 231.667 1.97675 231.667 2.21744C231.667 2.45812 231.609 2.67692 231.494 2.87385C231.38 3.07077 231.221 3.22667 231.019 3.34154C230.816 3.45641 230.584 3.51385 230.321 3.51385C230.059 3.51385 229.823 3.45641 229.615 3.34154C229.413 3.22667 229.254 3.07077 229.14 2.87385C229.025 2.67692 228.967 2.45812 228.967 2.21744C228.967 1.97675 229.025 1.75795 229.14 1.56103C229.254 1.3641 229.413 1.21094 229.615 1.10154C229.823 0.986667 230.059 0.929232 230.321 0.929232ZM227.097 5.31077H231.724V12.4656H234.013V14H227.014V12.4656H229.558V6.84513H227.097V5.31077ZM244.604 5.77846C244.287 5.89333 243.926 5.97538 243.521 6.02462C243.116 6.06838 242.637 6.09026 242.085 6.09026C242.632 6.32547 243.039 6.62359 243.307 6.98462C243.575 7.34017 243.709 7.78051 243.709 8.30564C243.709 8.86906 243.565 9.37504 243.275 9.82359C242.99 10.2667 242.58 10.614 242.044 10.8656C241.513 11.1118 240.89 11.2349 240.173 11.2349C239.763 11.2349 239.394 11.1938 239.065 11.1118C238.961 11.172 238.877 11.2595 238.811 11.3744C238.751 11.4892 238.721 11.6068 238.721 11.7272C238.721 11.9132 238.792 12.0609 238.934 12.1703C239.082 12.2742 239.353 12.3262 239.746 12.3262H241.223C241.852 12.3262 242.41 12.4328 242.897 12.6462C243.389 12.8595 243.77 13.1549 244.038 13.5323C244.311 13.9043 244.448 14.3227 244.448 14.7877C244.448 15.373 244.276 15.8735 243.931 16.2892C243.592 16.7104 243.089 17.0304 242.421 17.2492C241.754 17.468 240.939 17.5774 239.976 17.5774C238.953 17.5774 238.146 17.4735 237.556 17.2656C236.97 17.0578 236.557 16.7542 236.317 16.3549C236.076 15.961 235.956 15.4605 235.956 14.8533H237.884C237.884 15.1542 237.941 15.3894 238.056 15.559C238.176 15.734 238.39 15.8626 238.696 15.9446C239.002 16.0321 239.443 16.0759 240.017 16.0759C240.843 16.0759 241.428 15.9774 241.773 15.7805C242.118 15.5891 242.29 15.3074 242.29 14.9354C242.29 14.6236 242.156 14.3802 241.888 14.2051C241.625 14.0301 241.256 13.9426 240.78 13.9426H239.344C238.781 13.9426 238.311 13.866 237.933 13.7128C237.561 13.5597 237.285 13.3545 237.104 13.0974C236.924 12.8403 236.834 12.5559 236.834 12.2441C236.834 11.9323 236.916 11.6369 237.08 11.3579C237.249 11.079 237.49 10.841 237.802 10.6441C237.271 10.3651 236.886 10.0287 236.645 9.63487C236.404 9.23556 236.284 8.75145 236.284 8.18256C236.284 7.56444 236.442 7.02017 236.76 6.54974C237.077 6.07932 237.517 5.71556 238.081 5.45846C238.65 5.20137 239.298 5.07282 240.025 5.07282C240.66 5.07829 241.212 5.04 241.683 4.95795C242.159 4.8759 242.566 4.7665 242.905 4.62974C243.25 4.49299 243.636 4.31248 244.062 4.08821L244.604 5.77846ZM240.066 6.51692C239.563 6.51692 239.172 6.66462 238.893 6.96C238.62 7.25538 238.483 7.65744 238.483 8.16615C238.483 8.68581 238.622 9.09607 238.901 9.39692C239.18 9.69231 239.571 9.84 240.075 9.84C240.567 9.84 240.944 9.69504 241.207 9.40513C241.469 9.10974 241.601 8.68855 241.601 8.14154C241.601 7.05846 241.089 6.51692 240.066 6.51692ZM246.415 14V5.31077H248.302L248.458 6.38564C248.83 5.94803 249.248 5.61983 249.713 5.40103C250.178 5.17675 250.679 5.06462 251.215 5.06462C251.992 5.06462 252.585 5.28889 252.995 5.73744C253.411 6.18598 253.619 6.82051 253.619 7.64103V14H251.453V8.48615C251.453 8.02667 251.423 7.67111 251.362 7.41949C251.308 7.16239 251.204 6.97641 251.051 6.86154C250.903 6.7412 250.684 6.68103 250.394 6.68103C249.76 6.68103 249.155 7.06667 248.581 7.83795V14H246.415Z" fill="#93569F"/>
</svg>
